<svg version="1.1" id="Layer_1" xmlns="http://www.w3.org/2000/svg" xmlns:xlink="http://www.w3.org/1999/xlink" x="0px" y="0px"
	 width="100%" viewBox="0 0 1920 700" enable-background="new 0 0 1920 700" xml:space="preserve">
<path fill="#0A4342" opacity="1.000000" stroke="none" 
	d="
M1506.000000,701.000000 
	C1004.000000,701.000000 502.500000,701.000000 1.000000,701.000000 
	C1.000000,467.666656 1.000000,234.333328 1.000000,1.000000 
	C641.000000,1.000000 1281.000000,1.000000 1921.000000,1.000000 
	C1921.000000,234.333328 1921.000000,467.666656 1921.000000,701.000000 
	C1782.833374,701.000000 1644.666626,701.000000 1506.000000,701.000000 
M1814.914185,607.177185 
	C1814.875610,605.782227 1814.837036,604.387207 1814.906128,602.109070 
	C1815.062378,595.075195 1815.062378,595.075195 1822.901855,594.674500 
	C1827.609131,594.623352 1832.316528,594.572266 1837.913452,594.659424 
	C1840.202515,594.680054 1842.544067,594.994568 1844.758301,594.598145 
	C1845.877441,594.397827 1846.766113,592.911194 1847.780518,591.500793 
	C1847.771729,591.332458 1847.762817,591.164062 1847.920898,590.072021 
	C1847.945435,554.239258 1847.974121,518.406555 1847.992920,482.573792 
	C1848.002197,464.740540 1848.018188,446.907166 1847.949951,429.074158 
	C1847.943726,427.432770 1847.346802,425.793640 1847.024170,424.153442 
	C1846.459961,424.236053 1845.895752,424.318665 1845.331665,424.401276 
	C1845.212891,426.449249 1844.991089,428.497192 1844.990356,430.545197 
	C1844.968994,482.211639 1844.919312,533.878235 1845.061523,585.544312 
	C1845.073486,589.889282 1843.942383,591.799744 1839.500366,591.169495 
	C1838.696045,591.055359 1837.844482,591.273682 1836.088745,591.203613 
	C1831.387695,591.244751 1826.686646,591.285889 1821.111328,591.199219 
	C1819.209351,591.041809 1817.307251,590.884399 1814.967285,590.690735 
	C1814.967285,584.574951 1814.892944,578.981873 1814.990845,573.391846 
	C1815.067505,569.007507 1813.025269,567.104309 1808.687744,567.069519 
	C1806.632690,567.053040 1804.582886,566.386841 1802.681152,565.105896 
	C1802.722656,563.107361 1802.875244,561.103577 1802.779541,559.111633 
	C1802.638306,556.169434 1803.775757,554.853210 1806.850464,555.024475 
	C1816.204224,555.545288 1814.864136,554.225952 1814.981689,546.297974 
	C1814.996582,545.298828 1815.354858,544.026733 1814.881470,543.354736 
	C1813.813965,541.839539 1812.447144,539.658875 1810.983154,539.473083 
	C1807.427368,539.021729 1803.232422,538.568726 1800.323608,540.087036 
	C1798.766479,540.899841 1799.614136,545.865051 1798.818604,548.805542 
	C1798.479248,550.060242 1796.774780,551.744080 1795.587891,551.831055 
	C1790.781982,552.183044 1785.936035,551.991272 1781.104858,551.997681 
	C1768.644409,552.014160 1768.787598,552.015076 1768.909546,539.566223 
	C1768.946533,535.795410 1770.243530,534.667969 1773.864990,534.717590 
	C1785.857666,534.881958 1797.856934,534.642090 1809.846802,534.892395 
	C1813.632446,534.971497 1815.151978,534.264587 1815.086182,530.056335 
	C1814.841553,514.400085 1814.983398,498.737793 1814.977417,483.077759 
	C1814.977051,482.245026 1815.176270,481.320862 1814.882690,480.602692 
	C1814.519287,479.714020 1813.738037,478.996277 1813.137329,478.204620 
	C1812.531616,479.041199 1811.627808,479.802521 1811.392944,480.732727 
	C1811.075317,481.990845 1811.251221,483.378693 1811.250244,484.710846 
	C1811.240479,498.371704 1811.120605,512.034119 1811.305420,525.692444 
	C1811.360229,529.744202 1810.153076,531.262207 1805.933838,531.166443 
	C1794.943970,530.916870 1783.944946,531.067139 1772.949585,531.075134 
	C1765.213135,531.080688 1765.218506,531.093323 1765.237915,538.605652 
	C1765.246094,541.770874 1765.157959,544.937927 1765.239990,548.100891 
	C1765.308960,550.763977 1764.354980,552.075806 1761.477173,552.023499 
	C1757.998413,551.960205 1753.085327,550.914490 1751.408203,552.721375 
	C1749.494995,554.782776 1750.266113,559.516479 1750.238159,563.091736 
	C1750.214233,566.153137 1748.924561,567.212524 1746.002319,567.116455 
	C1742.175171,566.990540 1738.331299,567.269409 1734.510986,567.065918 
	C1731.048950,566.881531 1729.827515,568.177246 1729.898438,571.667114 
	C1730.081299,580.659546 1729.705200,589.668030 1730.057861,598.650330 
	C1730.237915,603.236389 1728.526123,604.249023 1724.316040,604.179260 
	C1710.992065,603.958374 1697.661987,604.095825 1684.334351,604.096008 
	C1683.168213,604.096008 1681.948486,603.891174 1680.849854,604.165955 
	C1679.582031,604.483154 1678.420898,605.226929 1677.213501,605.785522 
	C1678.496582,606.455261 1679.768799,607.147583 1681.071777,607.776306 
	C1681.343628,607.907532 1681.729248,607.807251 1682.062378,607.807434 
	C1697.722412,607.815552 1713.383179,607.739807 1729.041626,607.900513 
	C1732.177368,607.932678 1733.111084,606.866089 1733.079590,603.897949 
	C1732.976807,594.236572 1733.136719,584.572144 1733.010132,574.911377 
	C1732.970459,571.880981 1734.078613,570.756653 1737.070679,570.808167 
	C1752.933350,571.081421 1749.825195,568.798035 1750.212158,582.938232 
	C1750.225830,583.437622 1750.215698,583.937744 1750.212891,584.437561 
	C1750.174805,591.021240 1750.171021,590.926453 1743.684937,591.179138 
	C1741.858521,591.250305 1738.555664,591.907593 1738.492432,592.548767 
	C1738.055908,596.976135 1738.186401,601.476990 1738.447021,605.935852 
	C1738.484131,606.567993 1740.147705,607.416626 1741.170288,607.630798 
	C1750.224243,609.527405 1752.775269,607.751953 1752.961914,598.768982 
	C1753.047729,594.638977 1755.424438,594.535950 1758.179077,594.846863 
	C1760.894165,595.153259 1765.075684,593.051514 1765.154541,598.522766 
	C1765.219360,603.016663 1765.333008,607.509949 1765.329346,612.745361 
	C1765.655029,616.126892 1767.831177,617.039856 1770.849609,617.025879 
	C1778.794189,616.988892 1786.740845,617.120239 1794.683105,616.977539 
	C1797.675903,616.923767 1799.499023,617.652283 1799.177979,621.924377 
	C1799.151245,627.757263 1799.143433,633.590332 1799.093384,639.422974 
	C1799.020508,647.917480 1799.618896,646.934021 1791.532593,646.939209 
	C1741.699707,646.971130 1691.866821,646.949341 1642.033936,646.982971 
	C1640.077515,646.984314 1638.121216,647.366882 1636.164917,647.571838 
	C1636.161499,648.158081 1636.158081,648.744324 1636.154663,649.330505 
	C1638.252197,649.555115 1640.349487,649.974243 1642.447144,649.975769 
	C1693.946655,650.014526 1745.446167,650.008911 1796.945679,650.010864 
	C1797.945557,650.010925 1799.161621,650.363647 1799.895630,649.920654 
	C1801.050293,649.223633 1802.704712,648.000793 1802.718994,646.980652 
	C1802.840088,638.322327 1802.637695,629.659485 1802.698364,620.168030 
	C1802.838379,615.803833 1806.236694,616.822937 1808.435669,617.273254 
	C1809.596680,617.510925 1810.972778,619.784058 1811.129028,621.257202 
	C1811.576172,625.472412 1811.449341,629.748413 1811.378906,634.916809 
	C1811.344849,638.237671 1811.322266,641.558716 1811.273438,644.879333 
	C1811.222534,648.339111 1812.737671,650.062439 1816.369019,650.025696 
	C1825.171753,649.936523 1833.977783,649.902466 1842.778931,650.050415 
	C1846.651001,650.115417 1848.117798,648.544861 1848.048584,644.713928 
	C1847.895264,636.245239 1847.818970,627.766479 1848.071289,619.302551 
	C1848.209229,614.676208 1846.316162,613.140381 1841.895874,613.194336 
	C1832.933228,613.303711 1823.966553,613.083618 1814.972168,612.166504 
	C1814.913086,610.780273 1814.854126,609.394043 1814.914185,607.177185 
M75.163910,277.646637 
	C75.731674,278.027069 76.299438,278.407501 76.867195,278.787933 
	C77.199432,278.186310 77.531662,277.584717 77.958153,276.052063 
	C77.963440,221.365891 77.968727,166.679733 78.912827,111.930862 
	C87.243149,111.920273 95.574379,111.976189 103.903313,111.863144 
	C106.832054,111.823395 108.171097,112.806686 108.040382,115.900261 
	C107.871735,119.891647 108.008797,123.896187 108.023483,127.895027 
	C108.048958,134.833176 108.782104,135.512375 115.653206,135.970352 
	C117.104576,136.067093 119.274399,136.599991 119.792725,137.609741 
	C122.583504,143.046524 119.548401,148.023361 113.531746,147.877289 
	C109.483856,147.779022 107.530426,149.105606 107.992493,153.316559 
	C108.118950,154.468964 108.006012,155.647125 108.011246,156.813446 
	C108.041634,163.579712 108.165260,163.699768 115.110451,163.755524 
	C123.627724,163.823898 123.750740,163.827026 123.973763,155.050095 
	C124.049767,152.058929 124.969666,150.864960 128.023331,150.975922 
	C132.682327,151.145157 137.352356,151.007584 142.017700,151.005890 
	C154.235901,151.001480 154.087723,151.002747 154.092392,163.072800 
	C154.093887,166.954788 152.931946,168.350723 148.986099,168.287323 
	C136.992538,168.094635 124.989143,168.401474 113.000237,168.095856 
	C108.948402,167.992569 107.875755,169.167221 107.926514,173.104492 
	C108.126259,188.597580 108.008461,204.094727 108.016998,219.590378 
	C108.017639,220.755142 107.927757,221.955551 108.181068,223.071014 
	C108.328545,223.720428 109.075554,224.233704 109.552811,224.808228 
	C110.222702,224.233017 111.272003,223.768234 111.478630,223.058197 
	C111.840080,221.816223 111.735382,220.423645 111.736595,219.094101 
	C111.749054,205.431290 111.913612,191.765182 111.649559,178.107452 
	C111.558800,173.413437 112.832779,171.659912 117.776077,171.809052 
	C128.929459,172.145523 140.106583,171.690399 151.260452,172.018845 
	C156.189270,172.163986 158.382736,170.876434 157.836884,165.641205 
	C157.458939,162.016281 157.477509,158.277176 157.955856,154.673660 
	C158.133484,153.335571 159.976883,151.436935 161.319962,151.186890 
	C164.855896,150.528625 169.818237,151.962830 171.789078,150.057251 
	C173.702606,148.207108 172.743393,143.243652 172.784317,139.644394 
	C172.816406,136.821136 174.081696,135.833511 176.761978,135.893417 
	C180.758484,135.982758 184.764801,135.753616 188.755966,135.921249 
	C191.993454,136.057266 193.149673,134.817505 193.089218,131.563766 
	C192.931381,123.069206 193.048523,114.569572 193.052307,106.071968 
	C193.055496,98.924995 193.053177,98.912376 199.961502,98.907501 
	C213.457718,98.897972 226.953918,98.909737 240.450119,98.894753 
	C241.778854,98.893280 243.148193,98.933754 244.417374,98.622826 
	C244.977295,98.485664 245.558517,97.565506 245.697586,96.909195 
	C245.780045,96.519966 245.097153,95.646866 244.622208,95.525841 
	C243.511612,95.242859 242.319031,95.204880 241.159409,95.202736 
	C225.497208,95.173759 209.833801,95.266365 194.173676,95.078651 
	C190.779312,95.037956 189.866470,96.212669 189.912140,99.378242 
	C190.046722,108.706978 189.804794,118.042587 190.028122,127.367897 
	C190.117966,131.119675 188.830170,132.313858 185.151901,132.227463 
	C170.431808,131.881729 173.075989,134.049896 172.819366,120.275429 
	C172.673096,112.424278 172.807953,112.505638 181.104706,111.785912 
	C182.432449,111.670738 184.684586,110.519447 184.762787,109.683723 
	C185.133057,105.726379 185.024017,101.704300 184.771774,97.725182 
	C184.720566,96.917206 183.327087,95.556770 182.532089,95.541977 
	C178.751434,95.471611 174.723618,95.101372 171.307175,96.313339 
	C170.090652,96.744888 169.923553,101.358871 170.034073,104.032394 
	C170.219513,108.517792 167.385025,108.367973 164.480560,108.184052 
	C161.621857,108.003029 157.654831,109.507751 157.810394,104.127289 
	C157.925919,100.132172 157.711639,96.127541 157.826050,92.132362 
	C157.954254,87.655945 155.893600,85.841965 151.467056,85.924049 
	C143.638779,86.069214 135.803970,85.856339 127.975349,85.992241 
	C124.938950,86.044960 123.827171,84.905571 123.887207,81.914268 
	C124.010880,75.751984 123.908165,69.585258 123.908386,63.420364 
	C123.908653,56.051163 123.913086,56.046993 131.107697,56.046795 
	C180.927063,56.045406 230.746429,56.053669 280.565765,56.018578 
	C282.652191,56.017105 284.738373,55.617134 286.824646,55.402809 
	C286.825165,54.823666 286.825714,54.244526 286.826233,53.665386 
	C285.361603,53.440689 283.897125,53.020550 282.432343,53.019554 
	C229.780518,52.983707 177.128586,53.017174 124.476906,52.918995 
	C120.846680,52.912228 120.011551,54.193615 120.113907,57.595577 
	C120.354340,65.586052 120.111176,73.589882 120.232079,81.585762 
	C120.279099,84.695259 119.330414,86.037819 115.962761,86.044518 
	C112.552261,86.051292 111.677467,84.619446 111.722008,81.550652 
	C111.833229,73.887825 111.681740,66.221306 111.781448,58.558163 
	C111.833755,54.537338 110.122131,52.875774 106.062592,52.949287 
	C97.401207,53.106136 88.733971,53.074356 80.071281,52.958660 
	C76.493011,52.910866 74.915443,54.278019 74.965477,57.956501 
	C75.085594,66.785637 75.096512,75.619255 74.949020,84.447685 
	C74.883247,88.384232 76.675804,89.826279 80.384155,89.760864 
	C85.214409,89.675652 90.047638,89.771881 94.879562,89.766602 
	C108.365501,89.751869 108.245453,89.745689 108.086098,103.305595 
	C108.043343,106.944183 106.990814,108.363365 103.244774,108.272377 
	C95.251953,108.078262 87.250839,108.236771 79.253151,108.226814 
	C76.678642,108.223618 74.369049,108.422180 75.120232,112.949127 
	C75.093987,122.754135 75.038383,132.559174 75.046516,142.364151 
	C75.083748,187.235214 75.138840,232.106262 75.163910,277.646637 
M78.624268,646.993103 
	C76.460350,647.186646 74.296432,647.380188 72.132515,647.573730 
	C76.946068,650.859680 1612.871216,650.478638 1615.841797,648.344360 
	C1615.537354,647.983826 1615.241699,647.326660 1614.945801,647.326538 
	C1103.159424,647.186340 591.373047,647.089539 78.624268,646.993103 
M925.500000,55.999393 
	C1231.140503,56.000465 1536.780884,56.001816 1842.421387,55.996593 
	C1844.418579,55.996559 1846.418213,55.944359 1848.411133,55.824974 
	C1848.823853,55.800259 1849.227051,55.387920 1849.602051,55.110115 
	C1849.703613,55.034882 1849.706177,54.799660 1849.716797,54.635445 
	C1849.727295,54.474670 1849.690186,54.310814 1849.674072,54.148304 
	C1844.764648,52.101086 311.036346,52.555042 308.270050,56.000370 
	C513.680054,56.000370 719.090027,56.000370 925.500000,55.999393 
z"/>
<path fill="#A1683A" opacity="1.000000" stroke="none" 
	d="
M79.105469,646.992920 
	C591.373047,647.089539 1103.159424,647.186340 1614.945801,647.326538 
	C1615.241699,647.326660 1615.537354,647.983826 1615.841797,648.344360 
	C1612.871216,650.478638 76.946068,650.859680 72.132515,647.573730 
	C74.296432,647.380188 76.460350,647.186646 79.105469,646.992920 
z"/>
<path fill="#A1683A" opacity="1.000000" stroke="none" 
	d="
M925.000000,55.999882 
	C719.090027,56.000370 513.680054,56.000370 308.270050,56.000370 
	C311.036346,52.555042 1844.764648,52.101086 1849.674072,54.148308 
	C1849.690186,54.310814 1849.727295,54.474670 1849.716797,54.635445 
	C1849.706177,54.799660 1849.703613,55.034882 1849.602051,55.110115 
	C1849.227051,55.387920 1848.823853,55.800259 1848.411133,55.824974 
	C1846.418213,55.944359 1844.418579,55.996559 1842.421387,55.996593 
	C1536.780884,56.001816 1231.140503,56.000465 925.000000,55.999882 
z"/>
<path fill="#93653B" opacity="1.000000" stroke="none" 
	d="
M75.284889,112.028023 
	C74.369049,108.422180 76.678642,108.223618 79.253151,108.226814 
	C87.250839,108.236771 95.251953,108.078262 103.244774,108.272377 
	C106.990814,108.363365 108.043343,106.944183 108.086098,103.305595 
	C108.245453,89.745689 108.365501,89.751869 94.879562,89.766602 
	C90.047638,89.771881 85.214409,89.675652 80.384155,89.760864 
	C76.675804,89.826279 74.883247,88.384232 74.949020,84.447685 
	C75.096512,75.619255 75.085594,66.785637 74.965477,57.956501 
	C74.915443,54.278019 76.493011,52.910866 80.071281,52.958660 
	C88.733971,53.074356 97.401207,53.106136 106.062592,52.949287 
	C110.122131,52.875774 111.833755,54.537338 111.781448,58.558163 
	C111.681740,66.221306 111.833229,73.887825 111.722008,81.550652 
	C111.677467,84.619446 112.552261,86.051292 115.962761,86.044518 
	C119.330414,86.037819 120.279099,84.695259 120.232079,81.585762 
	C120.111176,73.589882 120.354340,65.586052 120.113907,57.595577 
	C120.011551,54.193615 120.846680,52.912228 124.476906,52.918995 
	C177.128586,53.017174 229.780518,52.983707 282.432343,53.019554 
	C283.897125,53.020550 285.361603,53.440689 286.826233,53.665386 
	C286.825714,54.244526 286.825165,54.823666 286.824646,55.402809 
	C284.738373,55.617134 282.652191,56.017105 280.565765,56.018578 
	C230.746429,56.053669 180.927063,56.045406 131.107697,56.046795 
	C123.913086,56.046993 123.908653,56.051163 123.908386,63.420364 
	C123.908165,69.585258 124.010880,75.751984 123.887207,81.914268 
	C123.827171,84.905571 124.938950,86.044960 127.975349,85.992241 
	C135.803970,85.856339 143.638779,86.069214 151.467056,85.924049 
	C155.893600,85.841965 157.954254,87.655945 157.826050,92.132362 
	C157.711639,96.127541 157.925919,100.132172 157.810394,104.127289 
	C157.654831,109.507751 161.621857,108.003029 164.480560,108.184052 
	C167.385025,108.367973 170.219513,108.517792 170.034073,104.032394 
	C169.923553,101.358871 170.090652,96.744888 171.307175,96.313339 
	C174.723618,95.101372 178.751434,95.471611 182.532089,95.541977 
	C183.327087,95.556770 184.720566,96.917206 184.771774,97.725182 
	C185.024017,101.704300 185.133057,105.726379 184.762787,109.683723 
	C184.684586,110.519447 182.432449,111.670738 181.104706,111.785912 
	C172.807953,112.505638 172.673096,112.424278 172.819366,120.275429 
	C173.075989,134.049896 170.431808,131.881729 185.151901,132.227463 
	C188.830170,132.313858 190.117966,131.119675 190.028122,127.367897 
	C189.804794,118.042587 190.046722,108.706978 189.912140,99.378242 
	C189.866470,96.212669 190.779312,95.037956 194.173676,95.078651 
	C209.833801,95.266365 225.497208,95.173759 241.159409,95.202736 
	C242.319031,95.204880 243.511612,95.242859 244.622208,95.525841 
	C245.097153,95.646866 245.780045,96.519966 245.697586,96.909195 
	C245.558517,97.565506 244.977295,98.485664 244.417374,98.622826 
	C243.148193,98.933754 241.778854,98.893280 240.450119,98.894753 
	C226.953918,98.909737 213.457718,98.897972 199.961502,98.907501 
	C193.053177,98.912376 193.055496,98.924995 193.052307,106.071968 
	C193.048523,114.569572 192.931381,123.069206 193.089218,131.563766 
	C193.149673,134.817505 191.993454,136.057266 188.755966,135.921249 
	C184.764801,135.753616 180.758484,135.982758 176.761978,135.893417 
	C174.081696,135.833511 172.816406,136.821136 172.784317,139.644394 
	C172.743393,143.243652 173.702606,148.207108 171.789078,150.057251 
	C169.818237,151.962830 164.855896,150.528625 161.319962,151.186890 
	C159.976883,151.436935 158.133484,153.335571 157.955856,154.673660 
	C157.477509,158.277176 157.458939,162.016281 157.836884,165.641205 
	C158.382736,170.876434 156.189270,172.163986 151.260452,172.018845 
	C140.106583,171.690399 128.929459,172.145523 117.776077,171.809052 
	C112.832779,171.659912 111.558800,173.413437 111.649559,178.107452 
	C111.913612,191.765182 111.749054,205.431290 111.736595,219.094101 
	C111.735382,220.423645 111.840080,221.816223 111.478630,223.058197 
	C111.272003,223.768234 110.222702,224.233017 109.552811,224.808228 
	C109.075554,224.233704 108.328545,223.720428 108.181068,223.071014 
	C107.927757,221.955551 108.017639,220.755142 108.016998,219.590378 
	C108.008461,204.094727 108.126259,188.597580 107.926514,173.104492 
	C107.875755,169.167221 108.948402,167.992569 113.000237,168.095856 
	C124.989143,168.401474 136.992538,168.094635 148.986099,168.287323 
	C152.931946,168.350723 154.093887,166.954788 154.092392,163.072800 
	C154.087723,151.002747 154.235901,151.001480 142.017700,151.005890 
	C137.352356,151.007584 132.682327,151.145157 128.023331,150.975922 
	C124.969666,150.864960 124.049767,152.058929 123.973763,155.050095 
	C123.750740,163.827026 123.627724,163.823898 115.110451,163.755524 
	C108.165260,163.699768 108.041634,163.579712 108.011246,156.813446 
	C108.006012,155.647125 108.118950,154.468964 107.992493,153.316559 
	C107.530426,149.105606 109.483856,147.779022 113.531746,147.877289 
	C119.548401,148.023361 122.583504,143.046524 119.792725,137.609741 
	C119.274399,136.599991 117.104576,136.067093 115.653206,135.970352 
	C108.782104,135.512375 108.048958,134.833176 108.023483,127.895027 
	C108.008797,123.896187 107.871735,119.891647 108.040382,115.900261 
	C108.171097,112.806686 106.832054,111.823395 103.903313,111.863144 
	C95.574379,111.976189 87.243149,111.920273 78.107422,111.974648 
	C76.629639,112.021629 75.957268,112.024826 75.284889,112.028023 
M80.964409,86.027969 
	C88.622536,86.045204 96.281876,85.989624 103.938187,86.116417 
	C106.898827,86.165443 108.115440,85.098969 108.057732,82.050224 
	C107.922249,74.893684 107.895126,67.729553 108.077934,60.574986 
	C108.163651,57.220146 106.730965,56.221142 103.631638,56.271141 
	C96.640778,56.383915 89.645317,56.396881 82.654938,56.271580 
	C79.433235,56.213825 78.193222,57.503601 78.250458,60.704052 
	C78.375473,67.694427 78.188332,74.691093 78.364128,81.679268 
	C78.399834,83.098618 79.472565,84.491882 80.964409,86.027969 
M135.525330,111.886429 
	C132.696823,111.903450 129.839569,111.694801 127.054092,112.049614 
	C125.954430,112.189690 124.156761,113.570129 124.141991,114.411499 
	C124.049408,119.685471 124.370453,124.966713 124.554619,130.245544 
	C128.635040,130.551193 132.714767,130.866913 136.796494,131.154114 
	C137.624390,131.212372 138.459869,131.163589 139.291855,131.163025 
	C154.290543,131.152954 154.213348,131.157837 153.241882,115.879730 
	C153.048828,112.843521 151.903030,111.783089 148.993927,111.870270 
	C144.837921,111.994820 140.675079,111.891243 135.525330,111.886429 
M133.550354,108.230736 
	C135.878922,108.228928 138.208450,108.269943 140.535919,108.218361 
	C155.347656,107.890144 152.873734,110.839752 153.272293,95.188362 
	C153.374954,91.156746 151.767227,89.964767 147.979355,90.141701 
	C143.000519,90.374268 138.002213,90.162437 133.012711,90.200005 
	C122.728477,90.277443 123.915253,89.198341 123.913589,99.230721 
	C123.911964,108.968475 122.714775,108.152023 133.550354,108.230736 
M142.469147,136.007263 
	C137.644058,135.975693 132.811081,136.104675 127.996048,135.868225 
	C123.003265,135.623016 123.913971,139.098572 123.941971,141.941681 
	C123.969452,144.731949 122.895554,148.198395 127.970490,148.004990 
	C134.616974,147.751663 141.297348,147.663223 147.931335,148.049759 
	C152.687119,148.326874 154.201340,146.902328 154.190384,142.000336 
	C154.179520,137.134216 152.713394,135.296188 147.944489,135.983597 
	C146.477661,136.195038 144.953949,136.011734 142.469147,136.007263 
M157.978653,124.412918 
	C158.444504,126.882790 158.055130,130.493317 159.538773,131.605713 
	C163.758652,134.769638 169.062912,131.529343 169.100800,126.290230 
	C169.123642,123.131836 168.939804,119.961800 169.153015,116.817612 
	C169.394440,113.257271 168.255661,111.732880 164.412018,111.813049 
	C157.947525,111.947884 157.717010,111.952759 157.832047,118.464973 
	C157.861404,120.126701 157.928238,121.787758 157.978653,124.412918 
M112.434502,115.031097 
	C112.412338,119.001686 112.434868,122.973198 112.352638,126.942543 
	C112.295822,129.685486 113.083023,131.252396 116.279137,131.226379 
	C119.402336,131.200989 120.312172,129.766937 120.243141,126.960503 
	C120.153664,123.322777 120.402916,119.668045 120.137161,116.047737 
	C120.036034,114.670044 118.805145,112.192741 118.272186,112.240929 
	C116.318649,112.417557 114.442078,113.445435 112.434502,115.031097 
M112.364655,97.654884 
	C112.370499,99.820015 112.442558,101.987488 112.366013,104.149704 
	C112.261810,107.093422 113.503433,108.322716 116.534225,108.256729 
	C119.427490,108.193741 120.292915,106.804916 120.239159,104.209137 
	C120.166756,100.713142 120.538948,97.166557 120.037071,93.741806 
	C119.844048,92.424652 117.952499,90.771332 116.518906,90.352394 
	C114.114082,89.649620 112.295387,90.787277 112.394867,93.738464 
	C112.428497,94.736076 112.378075,95.736534 112.364655,97.654884 
M166.218887,147.916428 
	C168.932358,146.613831 170.657959,137.733765 168.151489,136.746582 
	C165.568436,135.729248 162.309067,135.956146 159.461411,136.393188 
	C158.682709,136.512695 157.914413,139.324265 157.836792,140.933960 
	C157.498169,147.955582 157.591171,147.960068 166.218887,147.916428 
M182.450775,101.826523 
	C181.972427,95.820274 177.249069,98.048424 174.590729,98.618034 
	C173.388809,98.875572 171.922760,103.398026 172.508194,105.428680 
	C174.027649,110.699074 178.463516,107.041588 181.885483,107.937462 
	C182.110321,105.899361 182.289108,104.278587 182.450775,101.826523 
M113.679794,150.804642 
	C111.152390,152.231796 109.377747,158.916443 111.507172,159.702515 
	C113.924286,160.594788 118.482689,160.574310 119.627678,159.066040 
	C122.528275,155.245178 119.574768,150.976318 113.679794,150.804642 
z"/>
<path fill="#93653B" opacity="1.000000" stroke="none" 
	d="
M1765.425049,612.003479 
	C1765.333008,607.509949 1765.219360,603.016663 1765.154541,598.522766 
	C1765.075684,593.051514 1760.894165,595.153259 1758.179077,594.846863 
	C1755.424438,594.535950 1753.047729,594.638977 1752.961914,598.768982 
	C1752.775269,607.751953 1750.224243,609.527405 1741.170288,607.630798 
	C1740.147705,607.416626 1738.484131,606.567993 1738.447021,605.935852 
	C1738.186401,601.476990 1738.055908,596.976135 1738.492432,592.548767 
	C1738.555664,591.907593 1741.858521,591.250305 1743.684937,591.179138 
	C1750.171021,590.926453 1750.174805,591.021240 1750.212891,584.437561 
	C1750.215698,583.937744 1750.225830,583.437622 1750.212158,582.938232 
	C1749.825195,568.798035 1752.933350,571.081421 1737.070679,570.808167 
	C1734.078613,570.756653 1732.970459,571.880981 1733.010132,574.911377 
	C1733.136719,584.572144 1732.976807,594.236572 1733.079590,603.897949 
	C1733.111084,606.866089 1732.177368,607.932678 1729.041626,607.900513 
	C1713.383179,607.739807 1697.722412,607.815552 1682.062378,607.807434 
	C1681.729248,607.807251 1681.343628,607.907532 1681.071777,607.776306 
	C1679.768799,607.147583 1678.496582,606.455261 1677.213501,605.785522 
	C1678.420898,605.226929 1679.582031,604.483154 1680.849854,604.165955 
	C1681.948486,603.891174 1683.168213,604.096008 1684.334351,604.096008 
	C1697.661987,604.095825 1710.992065,603.958374 1724.316040,604.179260 
	C1728.526123,604.249023 1730.237915,603.236389 1730.057861,598.650330 
	C1729.705200,589.668030 1730.081299,580.659546 1729.898438,571.667114 
	C1729.827515,568.177246 1731.048950,566.881531 1734.510986,567.065918 
	C1738.331299,567.269409 1742.175171,566.990540 1746.002319,567.116455 
	C1748.924561,567.212524 1750.214233,566.153137 1750.238159,563.091736 
	C1750.266113,559.516479 1749.494995,554.782776 1751.408203,552.721375 
	C1753.085327,550.914490 1757.998413,551.960205 1761.477173,552.023499 
	C1764.354980,552.075806 1765.308960,550.763977 1765.239990,548.100891 
	C1765.157959,544.937927 1765.246094,541.770874 1765.237915,538.605652 
	C1765.218506,531.093323 1765.213135,531.080688 1772.949585,531.075134 
	C1783.944946,531.067139 1794.943970,530.916870 1805.933838,531.166443 
	C1810.153076,531.262207 1811.360229,529.744202 1811.305420,525.692444 
	C1811.120605,512.034119 1811.240479,498.371704 1811.250244,484.710846 
	C1811.251221,483.378693 1811.075317,481.990845 1811.392944,480.732727 
	C1811.627808,479.802521 1812.531616,479.041199 1813.137329,478.204620 
	C1813.738037,478.996277 1814.519287,479.714020 1814.882690,480.602692 
	C1815.176270,481.320862 1814.977051,482.245026 1814.977417,483.077759 
	C1814.983398,498.737793 1814.841553,514.400085 1815.086182,530.056335 
	C1815.151978,534.264587 1813.632446,534.971497 1809.846802,534.892395 
	C1797.856934,534.642090 1785.857666,534.881958 1773.864990,534.717590 
	C1770.243530,534.667969 1768.946533,535.795410 1768.909546,539.566223 
	C1768.787598,552.015076 1768.644409,552.014160 1781.104858,551.997681 
	C1785.936035,551.991272 1790.781982,552.183044 1795.587891,551.831055 
	C1796.774780,551.744080 1798.479248,550.060242 1798.818604,548.805542 
	C1799.614136,545.865051 1798.766479,540.899841 1800.323608,540.087036 
	C1803.232422,538.568726 1807.427368,539.021729 1810.983154,539.473083 
	C1812.447144,539.658875 1813.813965,541.839539 1814.881470,543.354736 
	C1815.354858,544.026733 1814.996582,545.298828 1814.981689,546.297974 
	C1814.864136,554.225952 1816.204224,555.545288 1806.850464,555.024475 
	C1803.775757,554.853210 1802.638306,556.169434 1802.779541,559.111633 
	C1802.875244,561.103577 1802.722656,563.107361 1802.285034,565.559204 
	C1801.032959,566.012207 1800.177002,566.011963 1799.253662,565.556519 
	C1799.155884,563.769043 1798.941040,562.410156 1799.128052,561.109070 
	C1799.813843,556.334778 1797.988159,554.636658 1793.087402,554.939453 
	C1786.447632,555.349609 1779.753906,555.271118 1773.102417,554.973999 
	C1768.536133,554.770081 1768.817627,557.597839 1769.038330,560.459534 
	C1769.252441,563.233704 1767.469971,567.130615 1773.033325,567.039612 
	C1781.355835,566.903503 1789.685425,567.210632 1798.010132,567.684692 
	C1798.010132,569.225403 1798.012207,570.410461 1797.549561,571.667297 
	C1792.595581,571.771545 1788.106567,571.835510 1783.617432,571.830872 
	C1769.348999,571.816223 1769.497070,571.804138 1769.701660,586.179565 
	C1769.759888,590.274719 1771.357544,591.290894 1775.054443,591.171814 
	C1780.031738,591.011475 1785.022461,591.263916 1790.006348,591.656860 
	C1790.005371,592.821716 1790.005371,593.668884 1789.541260,594.588562 
	C1783.941772,594.706543 1778.805664,594.812988 1773.670898,594.772766 
	C1770.972290,594.751587 1769.762573,595.852234 1769.786011,598.604309 
	C1769.824097,603.075073 1769.679199,607.547485 1769.262451,612.016174 
	C1767.750732,612.009949 1766.587891,612.006714 1765.425049,612.003479 
M1765.167114,587.242676 
	C1765.114624,583.080994 1764.874146,578.910767 1765.062378,574.760010 
	C1765.251099,570.599731 1762.589355,570.699890 1759.831055,570.843384 
	C1757.218018,570.979309 1753.766357,569.814087 1753.898193,574.551697 
	C1754.009277,578.544678 1753.675415,582.563782 1754.020508,586.529419 
	C1754.156250,588.088562 1755.778198,590.883850 1756.420654,590.799866 
	C1759.392456,590.411438 1763.697998,593.597229 1765.167114,587.242676 
M1765.245972,560.547607 
	C1766.110229,555.047852 1762.722900,555.103821 1758.662598,554.920593 
	C1753.809326,554.701599 1753.789795,557.369690 1753.864136,560.811096 
	C1753.937622,564.202209 1753.362671,567.435608 1758.699585,567.223145 
	C1762.874023,567.057007 1766.071655,566.849792 1765.245972,560.547607 
M1741.445923,604.286926 
	C1742.909790,604.478821 1744.375366,604.658325 1745.837158,604.864990 
	C1749.915039,605.441345 1750.878906,603.422668 1750.896729,599.670898 
	C1750.914673,595.913940 1749.587402,594.794128 1745.935791,594.831116 
	C1742.374878,594.867310 1740.049683,595.478882 1740.532715,599.668091 
	C1740.684082,600.981262 1740.820190,602.296143 1741.445923,604.286926 
M1802.853516,545.727112 
	C1803.237183,547.755432 1803.187134,551.257141 1804.089600,551.522827 
	C1806.367188,552.193359 1809.073853,551.406982 1811.608521,551.204468 
	C1811.310425,548.273376 1811.012329,545.342224 1810.714233,542.411133 
	C1807.973511,542.774475 1804.284424,540.074829 1802.853516,545.727112 
z"/>
<path fill="#93653B" opacity="1.000000" stroke="none" 
	d="
M1802.532227,620.997925 
	C1802.637695,629.659485 1802.840088,638.322327 1802.718994,646.980652 
	C1802.704712,648.000793 1801.050293,649.223633 1799.895630,649.920654 
	C1799.161621,650.363647 1797.945557,650.010925 1796.945679,650.010864 
	C1745.446167,650.008911 1693.946655,650.014526 1642.447144,649.975769 
	C1640.349487,649.974243 1638.252197,649.555115 1636.154663,649.330505 
	C1636.158081,648.744324 1636.161499,648.158081 1636.164917,647.571838 
	C1638.121216,647.366882 1640.077515,646.984314 1642.033936,646.982971 
	C1691.866821,646.949341 1741.699707,646.971130 1791.532593,646.939209 
	C1799.618896,646.934021 1799.020508,647.917480 1799.093384,639.422974 
	C1799.143433,633.590332 1799.151245,627.757263 1799.565186,621.460083 
	C1800.812378,620.996582 1801.672241,620.997253 1802.532227,620.997925 
z"/>
<path fill="#97663B" opacity="1.000000" stroke="none" 
	d="
M1837.014893,591.338623 
	C1837.844482,591.273682 1838.696045,591.055359 1839.500366,591.169495 
	C1843.942383,591.799744 1845.073486,589.889282 1845.061523,585.544312 
	C1844.919312,533.878235 1844.968994,482.211639 1844.990356,430.545197 
	C1844.991089,428.497192 1845.212891,426.449249 1845.331665,424.401276 
	C1845.895752,424.318665 1846.459961,424.236053 1847.024170,424.153442 
	C1847.346802,425.793640 1847.943726,427.432770 1847.949951,429.074158 
	C1848.018188,446.907166 1848.002197,464.740540 1847.992920,482.573792 
	C1847.974121,518.406555 1847.945435,554.239258 1847.768311,590.607239 
	C1847.404541,591.465271 1847.452393,591.753235 1847.759033,592.006226 
	C1846.766113,592.911194 1845.877441,594.397827 1844.758301,594.598145 
	C1842.544067,594.994568 1840.202515,594.680054 1837.466309,594.272034 
	C1837.017822,593.035950 1837.016357,592.187317 1837.014893,591.338623 
z"/>
<path fill="#A1683A" opacity="1.000000" stroke="none" 
	d="
M75.202560,112.488571 
	C75.957268,112.024826 76.629639,112.021629 77.638016,112.005997 
	C77.968727,166.679733 77.963440,221.365891 77.576485,276.521729 
	C76.525719,276.986664 75.856613,276.981995 75.187515,276.977325 
	C75.138840,232.106262 75.083748,187.235214 75.046516,142.364151 
	C75.038383,132.559174 75.093987,122.754135 75.202560,112.488571 
z"/>
<path fill="#97663B" opacity="1.000000" stroke="none" 
	d="
M1799.321045,566.011658 
	C1800.177002,566.011963 1801.032959,566.012207 1802.209717,566.013794 
	C1804.582886,566.386841 1806.632690,567.053040 1808.687744,567.069519 
	C1813.025269,567.104309 1815.067505,569.007507 1814.990845,573.391846 
	C1814.892944,578.981873 1814.967285,584.574951 1814.967285,590.690735 
	C1817.307251,590.884399 1819.209351,591.041809 1821.548950,591.582703 
	C1821.983398,592.818298 1821.980103,593.670410 1821.976807,594.522522 
	C1815.062378,595.075195 1815.062378,595.075195 1814.460938,602.553589 
	C1812.969360,603.000732 1811.922852,603.003418 1810.810547,602.581909 
	C1809.951172,599.558411 1812.368896,595.822632 1808.024658,594.167603 
	C1808.020264,593.025635 1808.018677,592.195007 1808.401001,591.248413 
	C1809.399170,590.086792 1810.490479,589.064514 1810.542847,587.991455 
	C1810.745850,583.839539 1810.559204,579.670349 1810.633301,575.509644 
	C1810.683594,572.686218 1809.330200,571.781982 1806.645508,571.772339 
	C1803.894653,571.762390 1802.680664,572.805908 1802.743042,575.578613 
	C1802.858887,580.735718 1802.855713,585.895447 1802.814209,591.323853 
	C1802.759521,592.703308 1802.792847,593.812927 1802.792969,595.389709 
	C1802.671265,599.895996 1802.582764,603.935242 1802.176636,607.978638 
	C1801.009155,607.984192 1800.159302,607.985474 1799.251953,607.526367 
	C1799.174805,606.241760 1799.142212,605.417786 1799.137451,604.593628 
	C1799.082397,595.153809 1799.083618,595.153809 1790.005371,594.516052 
	C1790.005371,593.668884 1790.005371,592.821716 1790.454468,591.592468 
	C1792.729248,591.157898 1794.589355,591.295959 1796.366577,590.975037 
	C1797.297607,590.806946 1798.830444,589.818787 1798.818848,589.226013 
	C1798.703003,583.346252 1798.321167,577.471619 1798.014282,571.595581 
	C1798.012207,570.410461 1798.010132,569.225403 1798.272705,567.512512 
	C1798.798584,566.660400 1799.059814,566.335999 1799.321045,566.011658 
z"/>
<path fill="#93653B" opacity="1.000000" stroke="none" 
	d="
M1815.001465,612.999329 
	C1823.966553,613.083618 1832.933228,613.303711 1841.895874,613.194336 
	C1846.316162,613.140381 1848.209229,614.676208 1848.071289,619.302551 
	C1847.818970,627.766479 1847.895264,636.245239 1848.048584,644.713928 
	C1848.117798,648.544861 1846.651001,650.115417 1842.778931,650.050415 
	C1833.977783,649.902466 1825.171753,649.936523 1816.369019,650.025696 
	C1812.737671,650.062439 1811.222534,648.339111 1811.273438,644.879333 
	C1811.322266,641.558716 1811.344849,638.237671 1811.787231,634.458557 
	C1813.058960,633.998108 1813.922363,633.995850 1814.844727,634.452881 
	C1814.930664,637.575500 1815.078857,640.244629 1814.952026,642.900513 
	C1814.816650,645.735657 1816.098999,646.750305 1818.802612,646.722839 
	C1826.126953,646.648499 1833.452759,646.644958 1840.777344,646.701355 
	C1843.467773,646.722168 1844.750244,645.665222 1844.723755,642.873047 
	C1844.654419,635.548645 1844.632812,628.222290 1844.731201,620.898560 
	C1844.771973,617.863586 1843.466553,616.824890 1840.522217,616.875061 
	C1832.034790,617.019958 1823.544312,616.983337 1814.955078,616.738647 
	C1814.903931,615.305908 1814.952759,614.152588 1815.001465,612.999329 
z"/>
<path fill="#97663B" opacity="1.000000" stroke="none" 
	d="
M1814.785767,633.993652 
	C1813.922363,633.995850 1813.058960,633.998108 1811.871826,634.000427 
	C1811.449341,629.748413 1811.576172,625.472412 1811.129028,621.257202 
	C1810.972778,619.784058 1809.596680,617.510925 1808.435669,617.273254 
	C1806.236694,616.822937 1802.838379,615.803833 1802.615234,620.583008 
	C1801.672241,620.997253 1800.812378,620.996582 1799.629883,620.994995 
	C1799.499023,617.652283 1797.675903,616.923767 1794.683105,616.977539 
	C1786.740845,617.120239 1778.794189,616.988892 1770.849609,617.025879 
	C1767.831177,617.039856 1765.655029,616.126892 1765.377197,612.374390 
	C1766.587891,612.006714 1767.750732,612.009949 1769.639404,612.244507 
	C1775.576782,612.657532 1780.788452,612.839233 1786.190552,613.210938 
	C1787.587524,613.272705 1788.794067,613.144470 1790.437012,612.958618 
	C1793.651001,611.842407 1797.920898,615.140869 1799.624756,610.011414 
	C1800.797485,610.015198 1801.649658,610.020508 1802.619385,610.409912 
	C1804.662842,611.440430 1806.688232,612.746094 1808.475952,612.476135 
	C1809.483032,612.324036 1810.097900,609.574463 1811.281250,607.994141 
	C1812.713623,607.998169 1813.754395,608.002991 1814.795166,608.007812 
	C1814.854126,609.394043 1814.913086,610.780273 1814.986816,612.582886 
	C1814.952759,614.152588 1814.903931,615.305908 1814.922607,617.204102 
	C1814.921997,623.297302 1814.853882,628.645447 1814.785767,633.993652 
z"/>
<path fill="#93653B" opacity="1.000000" stroke="none" 
	d="
M1822.439331,594.598511 
	C1821.980103,593.670410 1821.983398,592.818298 1821.986084,591.646606 
	C1826.686646,591.285889 1831.387695,591.244751 1836.551758,591.271118 
	C1837.016357,592.187317 1837.017822,593.035950 1837.021484,594.202881 
	C1832.316528,594.572266 1827.609131,594.623352 1822.439331,594.598511 
z"/>
<path fill="#93653B" opacity="1.000000" stroke="none" 
	d="
M1814.854736,607.592529 
	C1813.754395,608.002991 1812.713623,607.998169 1811.208618,607.582275 
	C1810.788330,605.782898 1810.832275,604.394470 1810.876343,603.006104 
	C1811.922852,603.003418 1812.969360,603.000732 1814.407227,602.995117 
	C1814.837036,604.387207 1814.875610,605.782227 1814.854736,607.592529 
z"/>
<path fill="#93653B" opacity="1.000000" stroke="none" 
	d="
M75.175713,277.311981 
	C75.856613,276.981995 76.525719,276.986664 77.529358,276.987244 
	C77.531662,277.584717 77.199432,278.186310 76.867203,278.787933 
	C76.299438,278.407501 75.731674,278.027069 75.175713,277.311981 
z"/>
<path fill="#93653B" opacity="1.000000" stroke="none" 
	d="
M1847.769775,591.753540 
	C1847.452393,591.753235 1847.404541,591.465271 1847.684692,591.069031 
	C1847.762817,591.164062 1847.771729,591.332458 1847.769775,591.753540 
z"/>
<path fill="#0D4442" opacity="1.000000" stroke="none" 
	d="
M80.515808,85.962570 
	C79.472565,84.491882 78.399834,83.098618 78.364128,81.679268 
	C78.188332,74.691093 78.375473,67.694427 78.250458,60.704052 
	C78.193222,57.503601 79.433235,56.213825 82.654938,56.271580 
	C89.645317,56.396881 96.640778,56.383915 103.631638,56.271141 
	C106.730965,56.221142 108.163651,57.220146 108.077934,60.574986 
	C107.895126,67.729553 107.922249,74.893684 108.057732,82.050224 
	C108.115440,85.098969 106.898827,86.165443 103.938187,86.116417 
	C96.281876,85.989624 88.622536,86.045204 80.515808,85.962570 
z"/>
<path fill="#0A4342" opacity="1.000000" stroke="none" 
	d="
M136.020248,111.885757 
	C140.675079,111.891243 144.837921,111.994820 148.993927,111.870270 
	C151.903030,111.783089 153.048828,112.843521 153.241882,115.879730 
	C154.213348,131.157837 154.290543,131.152954 139.291855,131.163025 
	C138.459869,131.163589 137.624390,131.212372 136.796494,131.154114 
	C132.714767,130.866913 128.635040,130.551193 124.554619,130.245544 
	C124.370453,124.966713 124.049408,119.685471 124.141991,114.411499 
	C124.156761,113.570129 125.954430,112.189690 127.054092,112.049614 
	C129.839569,111.694801 132.696823,111.903450 136.020248,111.885757 
z"/>
<path fill="#0D4442" opacity="1.000000" stroke="none" 
	d="
M133.059250,108.230652 
	C122.714775,108.152023 123.911964,108.968475 123.913589,99.230721 
	C123.915253,89.198341 122.728477,90.277443 133.012711,90.200005 
	C138.002213,90.162437 143.000519,90.374268 147.979355,90.141701 
	C151.767227,89.964767 153.374954,91.156746 153.272293,95.188362 
	C152.873734,110.839752 155.347656,107.890144 140.535919,108.218361 
	C138.208450,108.269943 135.878922,108.228928 133.059250,108.230652 
z"/>
<path fill="#0A4342" opacity="1.000000" stroke="none" 
	d="
M142.962708,136.008224 
	C144.953949,136.011734 146.477661,136.195038 147.944489,135.983597 
	C152.713394,135.296188 154.179520,137.134216 154.190384,142.000336 
	C154.201340,146.902328 152.687119,148.326874 147.931335,148.049759 
	C141.297348,147.663223 134.616974,147.751663 127.970490,148.004990 
	C122.895554,148.198395 123.969452,144.731949 123.941971,141.941681 
	C123.913971,139.098572 123.003265,135.623016 127.996048,135.868225 
	C132.811081,136.104675 137.644058,135.975693 142.962708,136.008224 
z"/>
<path fill="#0A4342" opacity="1.000000" stroke="none" 
	d="
M157.978241,123.931023 
	C157.928238,121.787758 157.861404,120.126701 157.832047,118.464973 
	C157.717010,111.952759 157.947525,111.947884 164.412018,111.813049 
	C168.255661,111.732880 169.394440,113.257271 169.153015,116.817612 
	C168.939804,119.961800 169.123642,123.131836 169.100800,126.290230 
	C169.062912,131.529343 163.758652,134.769638 159.538773,131.605713 
	C158.055130,130.493317 158.444504,126.882790 157.978241,123.931023 
z"/>
<path fill="#124542" opacity="1.000000" stroke="none" 
	d="
M112.485519,114.591965 
	C114.442078,113.445435 116.318649,112.417557 118.272186,112.240929 
	C118.805145,112.192741 120.036034,114.670044 120.137161,116.047737 
	C120.402916,119.668045 120.153664,123.322777 120.243141,126.960503 
	C120.312172,129.766937 119.402336,131.200989 116.279137,131.226379 
	C113.083023,131.252396 112.295822,129.685486 112.352638,126.942543 
	C112.434868,122.973198 112.412338,119.001686 112.485519,114.591965 
z"/>
<path fill="#124542" opacity="1.000000" stroke="none" 
	d="
M112.365364,97.195282 
	C112.378075,95.736534 112.428497,94.736076 112.394867,93.738464 
	C112.295387,90.787277 114.114082,89.649620 116.518906,90.352394 
	C117.952499,90.771332 119.844048,92.424652 120.037071,93.741806 
	C120.538948,97.166557 120.166756,100.713142 120.239159,104.209137 
	C120.292915,106.804916 119.427490,108.193741 116.534225,108.256729 
	C113.503433,108.322716 112.261810,107.093422 112.366013,104.149704 
	C112.442558,101.987488 112.370499,99.820015 112.365364,97.195282 
z"/>
<path fill="#0A4342" opacity="1.000000" stroke="none" 
	d="
M165.762299,147.929276 
	C157.591171,147.960068 157.498169,147.955582 157.836792,140.933960 
	C157.914413,139.324265 158.682709,136.512695 159.461411,136.393188 
	C162.309067,135.956146 165.568436,135.729248 168.151489,136.746582 
	C170.657959,137.733765 168.932358,146.613831 165.762299,147.929276 
z"/>
<path fill="#124542" opacity="1.000000" stroke="none" 
	d="
M182.459351,102.242172 
	C182.289108,104.278587 182.110321,105.899361 181.885483,107.937462 
	C178.463516,107.041588 174.027649,110.699074 172.508194,105.428680 
	C171.922760,103.398026 173.388809,98.875572 174.590729,98.618034 
	C177.249069,98.048424 181.972427,95.820274 182.459351,102.242172 
z"/>
<path fill="#0D4442" opacity="1.000000" stroke="none" 
	d="
M114.136314,150.779007 
	C119.574768,150.976318 122.528275,155.245178 119.627678,159.066040 
	C118.482689,160.574310 113.924286,160.594788 111.507172,159.702515 
	C109.377747,158.916443 111.152390,152.231796 114.136314,150.779007 
z"/>
<path fill="#0A4342" opacity="1.000000" stroke="none" 
	d="
M1797.549561,571.667297 
	C1798.321167,577.471619 1798.703003,583.346252 1798.818848,589.226013 
	C1798.830444,589.818787 1797.297607,590.806946 1796.366577,590.975037 
	C1794.589355,591.295959 1792.729248,591.157898 1790.455444,591.274780 
	C1785.022461,591.263916 1780.031738,591.011475 1775.054443,591.171814 
	C1771.357544,591.290894 1769.759888,590.274719 1769.701660,586.179565 
	C1769.497070,571.804138 1769.348999,571.816223 1783.617432,571.830872 
	C1788.106567,571.835510 1792.595581,571.771545 1797.549561,571.667297 
z"/>
<path fill="#0D4442" opacity="1.000000" stroke="none" 
	d="
M1786.000000,613.020874 
	C1780.788452,612.839233 1775.576782,612.657532 1769.988281,612.247559 
	C1769.679199,607.547485 1769.824097,603.075073 1769.786011,598.604309 
	C1769.762573,595.852234 1770.972290,594.751587 1773.670898,594.772766 
	C1778.805664,594.812988 1783.941772,594.706543 1789.541260,594.588562 
	C1799.083618,595.153809 1799.082397,595.153809 1799.137451,604.593628 
	C1799.142212,605.417786 1799.174805,606.241760 1799.199219,607.862549 
	C1799.237305,609.110474 1799.270874,609.561768 1799.304321,610.013000 
	C1797.920898,615.140869 1793.651001,611.842407 1790.039551,612.898071 
	C1788.137085,612.937012 1787.068481,612.978943 1786.000000,613.020874 
z"/>
<path fill="#0A4342" opacity="1.000000" stroke="none" 
	d="
M1799.253662,565.556519 
	C1799.059814,566.335999 1798.798584,566.660400 1798.274658,567.156982 
	C1789.685425,567.210632 1781.355835,566.903503 1773.033325,567.039612 
	C1767.469971,567.130615 1769.252441,563.233704 1769.038330,560.459534 
	C1768.817627,557.597839 1768.536133,554.770081 1773.102417,554.973999 
	C1779.753906,555.271118 1786.447632,555.349609 1793.087402,554.939453 
	C1797.988159,554.636658 1799.813843,556.334778 1799.128052,561.109070 
	C1798.941040,562.410156 1799.155884,563.769043 1799.253662,565.556519 
z"/>
<path fill="#0A4342" opacity="1.000000" stroke="none" 
	d="
M1765.145508,587.713501 
	C1763.697998,593.597229 1759.392456,590.411438 1756.420654,590.799866 
	C1755.778198,590.883850 1754.156250,588.088562 1754.020508,586.529419 
	C1753.675415,582.563782 1754.009277,578.544678 1753.898193,574.551697 
	C1753.766357,569.814087 1757.218018,570.979309 1759.831055,570.843384 
	C1762.589355,570.699890 1765.251099,570.599731 1765.062378,574.760010 
	C1764.874146,578.910767 1765.114624,583.080994 1765.145508,587.713501 
z"/>
<path fill="#0A4342" opacity="1.000000" stroke="none" 
	d="
M1765.244385,561.008362 
	C1766.071655,566.849792 1762.874023,567.057007 1758.699585,567.223145 
	C1753.362671,567.435608 1753.937622,564.202209 1753.864136,560.811096 
	C1753.789795,557.369690 1753.809326,554.701599 1758.662598,554.920593 
	C1762.722900,555.103821 1766.110229,555.047852 1765.244385,561.008362 
z"/>
<path fill="#124542" opacity="1.000000" stroke="none" 
	d="
M1741.204590,603.948608 
	C1740.820190,602.296143 1740.684082,600.981262 1740.532715,599.668091 
	C1740.049683,595.478882 1742.374878,594.867310 1745.935791,594.831116 
	C1749.587402,594.794128 1750.914673,595.913940 1750.896729,599.670898 
	C1750.878906,603.422668 1749.915039,605.441345 1745.837158,604.864990 
	C1744.375366,604.658325 1742.909790,604.478821 1741.204590,603.948608 
z"/>
<path fill="#0D4442" opacity="1.000000" stroke="none" 
	d="
M1802.878418,545.278381 
	C1804.284424,540.074829 1807.973511,542.774475 1810.714233,542.411133 
	C1811.012329,545.342224 1811.310425,548.273376 1811.608521,551.204468 
	C1809.073853,551.406982 1806.367188,552.193359 1804.089600,551.522827 
	C1803.187134,551.257141 1803.237183,547.755432 1802.878418,545.278381 
z"/>
<path fill="#124542" opacity="1.000000" stroke="none" 
	d="
M1802.902222,591.054077 
	C1802.855713,585.895447 1802.858887,580.735718 1802.743042,575.578613 
	C1802.680664,572.805908 1803.894653,571.762390 1806.645508,571.772339 
	C1809.330200,571.781982 1810.683594,572.686218 1810.633301,575.509644 
	C1810.559204,579.670349 1810.745850,583.839539 1810.542847,587.991455 
	C1810.490479,589.064514 1809.399170,590.086792 1807.978516,591.184326 
	C1805.748779,591.175598 1804.325439,591.114868 1802.902222,591.054077 
z"/>
<path fill="#124542" opacity="1.000000" stroke="none" 
	d="
M1810.810547,602.581909 
	C1810.832275,604.394470 1810.788330,605.782898 1810.816895,607.583130 
	C1810.097900,609.574463 1809.483032,612.324036 1808.475952,612.476135 
	C1806.688232,612.746094 1804.662842,611.440430 1802.672974,610.069336 
	C1802.570801,608.887878 1802.532593,608.431152 1802.494385,607.974426 
	C1802.582764,603.935242 1802.671265,599.895996 1803.224854,595.331726 
	C1805.135864,594.697388 1806.581543,594.588196 1808.027344,594.479004 
	C1812.368896,595.822632 1809.951172,599.558411 1810.810547,602.581909 
z"/>
<path fill="#93653B" opacity="1.000000" stroke="none" 
	d="
M1808.024658,594.167603 
	C1806.581543,594.588196 1805.135864,594.697388 1803.258179,594.864624 
	C1802.792847,593.812927 1802.759521,592.703308 1802.814209,591.323853 
	C1804.325439,591.114868 1805.748779,591.175598 1807.594482,591.300415 
	C1808.018677,592.195007 1808.020264,593.025635 1808.024658,594.167603 
z"/>
<path fill="#93653B" opacity="1.000000" stroke="none" 
	d="
M1802.176636,607.978638 
	C1802.532593,608.431152 1802.570801,608.887878 1802.555420,609.685242 
	C1801.649658,610.020508 1800.797485,610.015198 1799.624756,610.011414 
	C1799.270874,609.561768 1799.237305,609.110474 1799.256714,608.322998 
	C1800.159302,607.985474 1801.009155,607.984192 1802.176636,607.978638 
z"/>
<path fill="#0D4442" opacity="1.000000" stroke="none" 
	d="
M1814.844727,634.452942 
	C1814.853882,628.645447 1814.921997,623.297302 1815.022583,617.483582 
	C1823.544312,616.983337 1832.034790,617.019958 1840.522217,616.875061 
	C1843.466553,616.824890 1844.771973,617.863586 1844.731201,620.898560 
	C1844.632812,628.222290 1844.654419,635.548645 1844.723755,642.873047 
	C1844.750244,645.665222 1843.467773,646.722168 1840.777344,646.701355 
	C1833.452759,646.644958 1826.126953,646.648499 1818.802612,646.722839 
	C1816.098999,646.750305 1814.816650,645.735657 1814.952026,642.900513 
	C1815.078857,640.244629 1814.930664,637.575500 1814.844727,634.452942 
z"/>
<path fill="#93653B" opacity="1.000000" stroke="none" 
	d="
M1786.190552,613.210938 
	C1787.068481,612.978943 1788.137085,612.937012 1789.603027,612.955688 
	C1788.794067,613.144470 1787.587524,613.272705 1786.190552,613.210938 
z"/>
</svg>